<svg xmlns="http://www.w3.org/2000/svg" width="140" height="29" viewBox="0 0 140 29">
    <g fill="none" fill-rule="evenodd">
        <path fill="#EE3957" d="M.148 28.643V.716h27.927v27.927H.148zM19.357 16.66a2.103 2.103 0 0 1-2.102-2.105 2.101 2.101 0 1 1 4.204 0c0 1.16-.94 2.105-2.102 2.105zm0-6.837c-.758 0-1.47.182-2.102.498V5.617h-2.63v8.938a4.732 4.732 0 1 0 4.732-4.732zM8.867 20.258a2.103 2.103 0 1 1 0-4.206 2.103 2.103 0 0 1 0 4.206zm4.553-3.378c-.017-.06-.032-.12-.052-.18a5.835 5.835 0 0 1-.206-1.521V9.198h-2.63v4.53a4.732 4.732 0 1 0-1.666 9.157c1.616 0 3.04-.813 3.895-2.046a8.459 8.459 0 0 0 2.904 2.046l1.317-2.285v-.006a5.76 5.76 0 0 1-3.562-3.714z"/>
        <path fill="#1C2E36" d="M34.365 22.697v-.035c0-3.382 2.588-6.245 6.23-6.245 2.104 0 3.398.586 4.641 1.64l-1.346 1.604c-.931-.795-1.847-1.295-3.381-1.295-2.226 0-3.918 1.952-3.918 4.262v.034c0 2.485 1.639 4.316 4.107 4.316 1.138 0 2.174-.363 2.916-.917v-2.26h-3.088v-1.845h5.142v5.073c-1.191 1.017-2.899 1.88-5.04 1.88-3.78 0-6.263-2.691-6.263-6.212zm18.601-.086c1.517 0 2.484-.794 2.484-2.02v-.034c0-1.293-.933-2-2.502-2H49.86v4.054h3.106zm-5.23-5.988h5.384c1.519 0 2.71.448 3.485 1.21.64.654 1.002 1.552 1.002 2.605v.034c0 1.985-1.191 3.175-2.883 3.659l3.263 4.573h-2.502l-2.97-4.21H49.86v4.21h-2.124V16.623zm21.866 6.074v-.035c0-2.344-1.71-4.296-4.106-4.296-2.4 0-4.073 1.916-4.073 4.262v.034c0 2.345 1.707 4.296 4.105 4.296 2.4 0 4.074-1.913 4.074-4.26zm-10.406 0v-.035c0-3.398 2.623-6.245 6.332-6.245 3.711 0 6.3 2.814 6.3 6.21v.035c0 3.4-2.624 6.246-6.332 6.246-3.712 0-6.3-2.81-6.3-6.21zm14.981.881v-6.955H76.3v6.869c0 2.245 1.156 3.451 3.054 3.451 1.882 0 3.037-1.14 3.037-3.365v-6.955h2.123v6.85c0 3.61-2.036 5.42-5.194 5.42-3.142 0-5.143-1.81-5.143-5.315zm17.274-.672c1.604 0 2.605-.898 2.605-2.156v-.036c0-1.415-1.017-2.158-2.605-2.158h-2.468v4.35h2.468zm-4.59-6.283h4.762c2.813 0 4.59 1.608 4.59 4.039v.032c0 2.711-2.175 4.126-4.833 4.126h-2.397v3.884H86.86V16.623zm-47.457-5.794c2.536 0 4.194-1.712 4.194-4.074V6.72c0-2.363-1.658-4.105-4.194-4.105h-2.381v8.214h2.38zM34.9.68h4.504c3.796 0 6.419 2.606 6.419 6.007v.033c0 3.4-2.623 6.04-6.42 6.04H34.9V.68zm12.996 0h8.955v1.9h-6.832v3.14h6.056v1.897H50.02v3.246h6.919v1.896h-9.042V.68zm20.347 0h2.294l-5.02 12.167h-1.865L58.632.68h2.346l3.64 9.284L68.244.68zm9.682 10.199c1.451 0 2.33-.57 2.33-1.656v-.035c0-1.02-.81-1.624-2.484-1.624h-3.365v3.315h3.52zm-.62-5.107c1.362 0 2.278-.536 2.278-1.638v-.037c0-.948-.759-1.537-2.122-1.537h-3.055v3.212h2.899zM72.318.68h5.419c1.38 0 2.466.38 3.158 1.069.533.537.81 1.192.81 2.004v.035c0 1.448-.828 2.227-1.726 2.69 1.416.484 2.4 1.295 2.4 2.935v.033c0 2.158-1.778 3.314-4.471 3.314h-5.59V.68zm17.346 5.989c1.519 0 2.484-.794 2.484-2.02v-.033c0-1.296-.93-2.001-2.5-2.001h-3.09v4.054h3.106zM84.434.68h5.386c1.519 0 2.709.45 3.486 1.209.639.655 1 1.553 1 2.606v.035c0 1.983-1.19 3.175-2.882 3.655l3.262 4.575h-2.503l-2.968-4.21h-2.657v4.21h-2.124V.68zM96.75 12.76V.68h2.123v12.08H96.75zm8.692-1.931c2.536 0 4.193-1.712 4.193-4.074V6.72c0-2.363-1.657-4.105-4.193-4.105h-2.381v8.214h2.38zM100.938.68h4.504c3.797 0 6.418 2.606 6.418 6.007v.033c0 3.4-2.62 6.04-6.418 6.04h-4.504V.68zm12.699 6.075v-.033c0-3.385 2.59-6.248 6.23-6.248 2.105 0 3.4.585 4.643 1.638l-1.347 1.607c-.931-.796-1.845-1.293-3.382-1.293-2.226 0-3.916 1.946-3.916 4.26v.036c0 2.483 1.638 4.311 4.106 4.311 1.139 0 2.173-.363 2.916-.913V7.86h-3.09V6.015h5.143v5.072c-1.192 1.017-2.898 1.879-5.039 1.879-3.779 0-6.264-2.69-6.264-6.21zM127.009.68h8.955v1.9h-6.832v3.14h6.056v1.897h-6.056v3.246h6.92v1.896h-9.043V.68zm11.846.695h.103c.12 0 .218-.04.218-.137 0-.087-.063-.145-.2-.145a.565.565 0 0 0-.121.012v.27zm-.007.536h-.218V.966c.087-.016.208-.026.363-.026.178 0 .258.026.327.069a.254.254 0 0 1 .092.205c0 .105-.08.184-.196.22v.012c.093.033.144.102.173.23.029.142.046.2.07.235h-.237c-.029-.034-.046-.121-.075-.231-.017-.104-.074-.15-.195-.15h-.104v.38zm-.58-.494c0 .419.31.752.736.752.414 0 .72-.333.72-.748 0-.422-.306-.758-.725-.758-.42 0-.731.336-.731.754zm1.696 0c0 .533-.42.951-.965.951a.954.954 0 0 1-.972-.951c0-.523.43-.943.972-.943.546 0 .965.42.965.943z"/>
    </g>
</svg>
